<svg
                _ngcontent-qpc-c207=""
                version="1.1"
                xmlns="http://www.w3.org/2000/svg"
                xmlns:xlink="http://www.w3.org/1999/xlink"
                x="0px"
                y="0px"
                viewBox="0 0 1818 670.79"
                xml:space="preserve"
                class="stl-logo"
                style="enable-background: new 0 0 1818 670.79"
              >
                <style _ngcontent-qpc-c207="" type="text/css">
                  .st0main {
                    fill: url(#SVGID_1_33);
                  }
                  .st1main {
                    fill: url(#SVGID_2_33);
                  }
                  .st2 {
                    fill: #d90000;
                  }
                  .st3 {
                    fill: #6e6e6e;
                  }
                  .st4 {
                    fill: #58595b;
                  }
                </style>
                <linearGradient
                  _ngcontent-qpc-c207=""
                  id="SVGID_1_33"
                  gradientUnits="userSpaceOnUse"
                  x1="50.1944"
                  y1="85.5088"
                  x2="359.4974"
                  y2="298.8213"
                  gradientTransform="matrix(0.993 0.1184 -0.1184 0.993 174.3741 -32.4145)"
                >
                  <stop
                    _ngcontent-qpc-c207=""
                    offset="0"
                    style="stop-color: #d91f00"
                  ></stop>
                  <stop
                    _ngcontent-qpc-c207=""
                    offset="0.9333"
                    style="stop-color: #d90200"
                  ></stop>
                  <stop
                    _ngcontent-qpc-c207=""
                    offset="1"
                    style="stop-color: #d90000"
                  ></stop>
                </linearGradient>
                <path
                  _ngcontent-qpc-c207=""
                  d="M596.57,150.8l16.41,20.17L453.36,289.21c-11.36,8.41-27.38,6.03-35.8-5.33l-9.25-12.48
                c-12.74-17.18-37.06-20.65-54.08-7.7l-79.23,60.23c-4.78,3.63-11.35-0.69-10.11-6.56c16.25-77.33,89.47-131,169.38-121.48
                c29.87,3.56,56.73,15.53,78.6,33.22l52.53-38.98c-39.02-36.72-91.77-59.63-151.18-59.35c-102.7,0.48-192.26,74.38-212.33,175.1
                c-5.11,25.65-5.61,50.9-1.99,75.13c1.42,9.66,3.49,19.15,6.15,28.4c4.93,17.12,25.81,23.66,39.99,12.87l25.28-19.23l86.16-65.51
                c8.51-6.47,20.68-4.74,27.05,3.85l20.4,27.53c8.41,11.35,24.42,13.74,35.78,5.35l295.94-218.6L596.57,150.8z"
                  class="st0main"
                ></path>
                <linearGradient
                  _ngcontent-qpc-c207=""
                  id="SVGID_2_33"
                  gradientUnits="userSpaceOnUse"
                  x1="351.5573"
                  y1="55.4637"
                  x2="351.5573"
                  y2="546.8695"
                  gradientTransform="matrix(0.993 0.1184 -0.1184 0.993 174.3741 -32.4145)"
                >
                  <stop
                    _ngcontent-qpc-c207=""
                    offset="0"
                    style="stop-color: #d90d00"
                  ></stop>
                  <stop
                    _ngcontent-qpc-c207=""
                    offset="0.2699"
                    style="stop-color: #a50900"
                  ></stop>
                  <stop
                    _ngcontent-qpc-c207=""
                    offset="0.6132"
                    style="stop-color: #6a0400"
                  ></stop>
                  <stop
                    _ngcontent-qpc-c207=""
                    offset="0.8665"
                    style="stop-color: #440100"
                  ></stop>
                  <stop
                    _ngcontent-qpc-c207=""
                    offset="1"
                    style="stop-color: #360000"
                  ></stop>
                </linearGradient>
                <path
                  _ngcontent-qpc-c207=""
                  d="M399.75,376.11l-20.4-27.51c-4.25-5.72-12.35-6.88-18.02-2.57l-87.56,66.53l-24.16,18.34
                c-16.75,12.72-20.38,36.71-7.66,53.47c4.6,6.07,9.52,11.9,14.73,17.48c33.96,36.21,80.35,61.2,133.41,67.53
                c119.53,14.25,228.4-71.37,242.66-190.96c1.79-15,1.94-29.8,0.76-44.25l-66.32,49.19c-15.8,77.9-89.28,132.04-169.53,122.47
                c-25.84-3.08-49.44-12.42-69.47-26.3c-10.83-7.52-11.43-23.29-0.93-31.27l21.86-16.61c5.67-4.31,13.78-3.16,18.02,2.56L383.32,456
                c12.63,17.02,36.66,20.59,53.69,7.97l252.15-186.85l15.81,23.69l35.46-136.6L444.46,382.79
                C430.26,393.27,410.26,390.29,399.75,376.11z"
                  class="st1main"
                ></path>
                <g _ngcontent-qpc-c207="">
                  <g _ngcontent-qpc-c207="">
                    <g _ngcontent-qpc-c207="">
                      <path
                        _ngcontent-qpc-c207=""
                        d="M954.02,210.98h-28.87c-2.49,0-4.63,0.69-6.4,2.07c-1.78,1.38-2.66,3.37-2.66,5.97
                      c0,0.74,0.13,1.53,0.4,2.35c0.26,0.82,0.56,1.6,0.88,2.35l19.57,37.94c0.42,0.9,0.85,2.03,1.27,3.38
                      c0.42,1.35,0.64,3.01,0.64,4.97c0,2.92-0.68,5.98-2.03,9.19c-1.35,3.21-3.22,6.19-5.61,8.95c-2.39,2.76-5.24,5.04-8.55,6.84
                      c-3.31,1.8-6.91,2.7-10.78,2.7h-83.28l4.53-17.42h27.52c2.97,0,5.46-0.73,7.48-2.19c2.01-1.46,3.02-3.62,3.02-6.48
                      c0-1.06-0.15-1.95-0.44-2.66c-0.29-0.72-0.7-1.6-1.23-2.66l-19.09-36.51c-0.32-0.64-0.61-1.55-0.88-2.74
                      c-0.27-1.19-0.4-2.61-0.4-4.26c0-3.61,0.78-7.17,2.35-10.7c1.56-3.53,3.74-6.67,6.52-9.43c2.78-2.76,6.04-4.98,9.78-6.68
                      c3.74-1.7,7.83-2.55,12.29-2.55h78.66L954.02,210.98z"
                        class="st2"
                      ></path>
                      <path
                        _ngcontent-qpc-c207=""
                        d="M1108.92,239.38c-1.43,5.2-3.47,9.51-6.12,12.93c-2.65,3.42-5.63,6.14-8.95,8.15
                      c-3.31,2.02-6.81,3.46-10.5,4.33c-3.69,0.87-7.23,1.31-10.62,1.31h-56.47l-8.51,31.58h-57.83l27.84-104.28h117
                      c2.07,0,4.35,0.25,6.84,0.76c2.49,0.5,4.77,1.38,6.84,2.63c2.07,1.25,3.8,2.98,5.21,5.21c1.4,2.23,2.11,5.06,2.11,8.51
                      c0,2.28-0.45,5.06-1.35,8.35L1108.92,239.38z M1056.74,219.49c0.37-1.11,0.61-2.07,0.72-2.86c0.11-0.8,0.16-1.54,0.16-2.23
                      c0-1.48-0.44-2.51-1.31-3.06c-0.88-0.56-2.35-0.84-4.41-0.84h-20.84l-10.1,37.62h19.73c2.81,0,5.05-0.57,6.72-1.71
                      c1.67-1.14,3.01-3.54,4.02-7.2L1056.74,219.49z"
                        class="st2"
                      ></path>
                      <path
                        _ngcontent-qpc-c207=""
                        d="M1134.08,297.68c-6.2,0-10.63-1.32-13.28-3.98c-2.65-2.65-3.98-6.2-3.98-10.66c0-2.39,0.42-5.22,1.27-8.51
                      l15.51-57.98c1.86-6.63,5.09-12.14,9.7-16.54c4.61-4.4,10.82-6.6,18.61-6.6h78.03l-4.53,17.42h-33.41c-2.49,0-4.49,0.77-6,2.31
                      c-1.51,1.54-2.61,3.55-3.3,6.04l-4.22,15.59h34.36l-4.69,17.66h-34.36l-5.25,20.04c-0.32,1.17-0.48,2.17-0.48,3.02
                      c0,3.18,2.39,4.77,7.16,4.77h31.58l-4.69,17.42H1134.08z"
                        class="st2"
                      ></path>
                      <path
                        _ngcontent-qpc-c207=""
                        d="M1253.11,297.68c-6.2,0-10.63-1.32-13.28-3.98c-2.65-2.65-3.98-6.2-3.98-10.66c0-2.39,0.42-5.22,1.27-8.51
                      l15.51-57.98c1.86-6.63,5.09-12.14,9.7-16.54c4.61-4.4,10.82-6.6,18.61-6.6h78.03l-4.53,17.42h-33.41c-2.49,0-4.49,0.77-6,2.31
                      c-1.51,1.54-2.61,3.55-3.3,6.04l-4.22,15.59h34.36l-4.69,17.66h-34.36l-5.25,20.04c-0.32,1.17-0.48,2.17-0.48,3.02
                      c0,3.18,2.39,4.77,7.16,4.77h31.58l-4.69,17.42H1253.11z"
                        class="st2"
                      ></path>
                      <path
                        _ngcontent-qpc-c207=""
                        d="M1505.12,274.53c-1.86,7.16-5.12,12.81-9.78,16.94s-10.87,6.2-18.61,6.2h-126.71l28-104.28h126.79
                      c5.83,0,10.14,1.37,12.92,4.1c2.78,2.73,4.18,6.38,4.18,10.94c0,2.7-0.4,5.41-1.19,8.11L1505.12,274.53z M1461.77,218.54
                      c0.21-1.11,0.32-1.94,0.32-2.47c0-1.64-0.46-2.96-1.39-3.94c-0.93-0.98-2.27-1.47-4.02-1.47h-24.74l-18.69,69.76h23.23
                      c3.18,0,5.58-0.6,7.2-1.79c1.62-1.19,2.82-3.19,3.62-6.01L1461.77,218.54z"
                        class="st2"
                      ></path>
                      <path
                        _ngcontent-qpc-c207=""
                        d="M837.34,350.37l-23.15,86.14h-60.69l23.07-86.14H748.1l4.69-18.14h117.8l-4.69,18.14H837.34z"
                      ></path>
                      <path
                        _ngcontent-qpc-c207=""
                        d="M1013.95,405.89c-1.22,4.56-2.74,8.71-4.57,12.45c-1.83,3.74-4.11,6.95-6.84,9.62c-2.73,2.68-5.96,4.77-9.7,6.28
                      c-3.74,1.51-8.21,2.27-13.4,2.27h-97.28c-2.6,0-5.14-0.24-7.64-0.72c-2.49-0.48-4.67-1.31-6.52-2.51s-3.35-2.88-4.49-5.05
                      c-1.14-2.17-1.71-5.01-1.71-8.51c0-4.03,0.72-8.64,2.15-13.84l11.53-42.87c1.11-3.87,2.48-7.66,4.1-11.37
                      c1.62-3.71,3.75-7,6.4-9.86c2.65-2.86,5.94-5.17,9.86-6.92c3.92-1.75,8.7-2.63,14.32-2.63h97.12c13.47,0,20.2,5.81,20.2,17.42
                      c0,3.71-0.66,8.17-1.99,13.36L1013.95,405.89z M967.82,356.33c0.21-1.06,0.32-1.8,0.32-2.23c0-2.97-2.12-4.45-6.36-4.45h-15.59
                      c-5.09,0-8.3,2.23-9.63,6.68l-14.95,56.23c-0.21,1.06-0.32,1.83-0.32,2.31c0,2.92,2.09,4.37,6.28,4.37h15.67
                      c5.09,0,8.3-2.23,9.62-6.68L967.82,356.33z"
                      ></path>
                      <path
                        _ngcontent-qpc-c207=""
                        d="M1073.99,436.51l28-104.28h59.34l-23.3,87.02h42.32l-4.69,17.26H1073.99z"
                      ></path>
                      <path
                        _ngcontent-qpc-c207=""
                        d="M1210.75,436.51c-6.2,0-10.63-1.32-13.28-3.98c-2.65-2.65-3.98-6.2-3.98-10.66c0-2.39,0.42-5.22,1.27-8.51l15.51-57.98
                      c1.86-6.63,5.09-12.14,9.7-16.54c4.61-4.4,10.82-6.6,18.61-6.6h78.03l-4.53,17.42h-33.41c-2.49,0-4.49,0.77-6,2.31
                      c-1.51,1.54-2.61,3.55-3.3,6.04l-4.22,15.59h34.36l-4.69,17.66h-34.36l-5.25,20.04c-0.32,1.17-0.48,2.17-0.48,3.02
                      c0,3.18,2.39,4.77,7.16,4.77h31.58l-4.69,17.42H1210.75z"
                      ></path>
                      <path
                        _ngcontent-qpc-c207=""
                        d="M1374.32,436.51l-0.79-18.37h-39.61l-11.21,18.37h-19.88l61.4-104.28h67.61l3.74,104.28H1374.32z M1372.88,351.96
                      l-27.52,47.56h27.84L1372.88,351.96z"
                      ></path>
                      <path
                        _ngcontent-qpc-c207=""
                        d="M1603.66,413.36c-1.86,7.16-5.12,12.81-9.78,16.94s-10.87,6.2-18.61,6.2h-126.71l28-104.28h126.79
                      c5.83,0,10.14,1.37,12.92,4.1c2.78,2.73,4.18,6.38,4.18,10.94c0,2.7-0.4,5.41-1.19,8.11L1603.66,413.36z M1560.31,357.37
                      c0.21-1.11,0.32-1.94,0.32-2.47c0-1.64-0.46-2.96-1.39-3.94c-0.93-0.98-2.27-1.47-4.02-1.47h-24.74l-18.69,69.76h23.23
                      c3.18,0,5.58-0.6,7.2-1.79c1.62-1.19,2.82-3.19,3.62-6.01L1560.31,357.37z"
                      ></path>
                    </g>
                    <g _ngcontent-qpc-c207="">
                      <path
                        _ngcontent-qpc-c207=""
                        d="M954.02,210.98h-28.87c-2.49,0-4.63,0.69-6.4,2.07c-1.78,1.38-2.66,3.37-2.66,5.97
                      c0,0.74,0.13,1.53,0.4,2.35c0.26,0.82,0.56,1.6,0.88,2.35l19.57,37.94c0.42,0.9,0.85,2.03,1.27,3.38
                      c0.42,1.35,0.64,3.01,0.64,4.97c0,2.92-0.68,5.98-2.03,9.19c-1.35,3.21-3.22,6.19-5.61,8.95c-2.39,2.76-5.24,5.04-8.55,6.84
                      c-3.31,1.8-6.91,2.7-10.78,2.7h-83.28l4.53-17.42h27.52c2.97,0,5.46-0.73,7.48-2.19c2.01-1.46,3.02-3.62,3.02-6.48
                      c0-1.06-0.15-1.95-0.44-2.66c-0.29-0.72-0.7-1.6-1.23-2.66l-19.09-36.51c-0.32-0.64-0.61-1.55-0.88-2.74
                      c-0.27-1.19-0.4-2.61-0.4-4.26c0-3.61,0.78-7.17,2.35-10.7c1.56-3.53,3.74-6.67,6.52-9.43c2.78-2.76,6.04-4.98,9.78-6.68
                      c3.74-1.7,7.83-2.55,12.29-2.55h78.66L954.02,210.98z"
                        class="st2"
                      ></path>
                      <path
                        _ngcontent-qpc-c207=""
                        d="M1108.92,239.38c-1.43,5.2-3.47,9.51-6.12,12.93c-2.65,3.42-5.63,6.14-8.95,8.15
                      c-3.31,2.02-6.81,3.46-10.5,4.33c-3.69,0.87-7.23,1.31-10.62,1.31h-56.47l-8.51,31.58h-57.83l27.84-104.28h117
                      c2.07,0,4.35,0.25,6.84,0.76c2.49,0.5,4.77,1.38,6.84,2.63c2.07,1.25,3.8,2.98,5.21,5.21c1.4,2.23,2.11,5.06,2.11,8.51
                      c0,2.28-0.45,5.06-1.35,8.35L1108.92,239.38z M1056.74,219.49c0.37-1.11,0.61-2.07,0.72-2.86c0.11-0.8,0.16-1.54,0.16-2.23
                      c0-1.48-0.44-2.51-1.31-3.06c-0.88-0.56-2.35-0.84-4.41-0.84h-20.84l-10.1,37.62h19.73c2.81,0,5.05-0.57,6.72-1.71
                      c1.67-1.14,3.01-3.54,4.02-7.2L1056.74,219.49z"
                        class="st2"
                      ></path>
                      <path
                        _ngcontent-qpc-c207=""
                        d="M1134.08,297.68c-6.2,0-10.63-1.32-13.28-3.98c-2.65-2.65-3.98-6.2-3.98-10.66c0-2.39,0.42-5.22,1.27-8.51
                      l15.51-57.98c1.86-6.63,5.09-12.14,9.7-16.54c4.61-4.4,10.82-6.6,18.61-6.6h78.03l-4.53,17.42h-33.41c-2.49,0-4.49,0.77-6,2.31
                      c-1.51,1.54-2.61,3.55-3.3,6.04l-4.22,15.59h34.36l-4.69,17.66h-34.36l-5.25,20.04c-0.32,1.17-0.48,2.17-0.48,3.02
                      c0,3.18,2.39,4.77,7.16,4.77h31.58l-4.69,17.42H1134.08z"
                        class="st2"
                      ></path>
                      <path
                        _ngcontent-qpc-c207=""
                        d="M1253.11,297.68c-6.2,0-10.63-1.32-13.28-3.98c-2.65-2.65-3.98-6.2-3.98-10.66c0-2.39,0.42-5.22,1.27-8.51
                      l15.51-57.98c1.86-6.63,5.09-12.14,9.7-16.54c4.61-4.4,10.82-6.6,18.61-6.6h78.03l-4.53,17.42h-33.41c-2.49,0-4.49,0.77-6,2.31
                      c-1.51,1.54-2.61,3.55-3.3,6.04l-4.22,15.59h34.36l-4.69,17.66h-34.36l-5.25,20.04c-0.32,1.17-0.48,2.17-0.48,3.02
                      c0,3.18,2.39,4.77,7.16,4.77h31.58l-4.69,17.42H1253.11z"
                        class="st2"
                      ></path>
                      <path
                        _ngcontent-qpc-c207=""
                        d="M1505.12,274.53c-1.86,7.16-5.12,12.81-9.78,16.94s-10.87,6.2-18.61,6.2h-126.71l28-104.28h126.79
                      c5.83,0,10.14,1.37,12.92,4.1c2.78,2.73,4.18,6.38,4.18,10.94c0,2.7-0.4,5.41-1.19,8.11L1505.12,274.53z M1461.77,218.54
                      c0.21-1.11,0.32-1.94,0.32-2.47c0-1.64-0.46-2.96-1.39-3.94c-0.93-0.98-2.27-1.47-4.02-1.47h-24.74l-18.69,69.76h23.23
                      c3.18,0,5.58-0.6,7.2-1.79c1.62-1.19,2.82-3.19,3.62-6.01L1461.77,218.54z"
                        class="st2"
                      ></path>
                      <path
                        _ngcontent-qpc-c207=""
                        d="M837.34,350.37l-23.15,86.14h-60.69l23.07-86.14H748.1l4.69-18.14h117.8l-4.69,18.14H837.34z"
                        class="st2"
                      ></path>
                      <path
                        _ngcontent-qpc-c207=""
                        d="M1013.95,405.89c-1.22,4.56-2.74,8.71-4.57,12.45c-1.83,3.74-4.11,6.95-6.84,9.62
                      c-2.73,2.68-5.96,4.77-9.7,6.28c-3.74,1.51-8.21,2.27-13.4,2.27h-97.28c-2.6,0-5.14-0.24-7.64-0.72
                      c-2.49-0.48-4.67-1.31-6.52-2.51s-3.35-2.88-4.49-5.05c-1.14-2.17-1.71-5.01-1.71-8.51c0-4.03,0.72-8.64,2.15-13.84l11.53-42.87
                      c1.11-3.87,2.48-7.66,4.1-11.37c1.62-3.71,3.75-7,6.4-9.86c2.65-2.86,5.94-5.17,9.86-6.92c3.92-1.75,8.7-2.63,14.32-2.63h97.12
                      c13.47,0,20.2,5.81,20.2,17.42c0,3.71-0.66,8.17-1.99,13.36L1013.95,405.89z M967.82,356.33c0.21-1.06,0.32-1.8,0.32-2.23
                      c0-2.97-2.12-4.45-6.36-4.45h-15.59c-5.09,0-8.3,2.23-9.63,6.68l-14.95,56.23c-0.21,1.06-0.32,1.83-0.32,2.31
                      c0,2.92,2.09,4.37,6.28,4.37h15.67c5.09,0,8.3-2.23,9.62-6.68L967.82,356.33z"
                        class="st2"
                      ></path>
                      <path
                        _ngcontent-qpc-c207=""
                        d="M1073.99,436.51l28-104.28h59.34l-23.3,87.02h42.32l-4.69,17.26H1073.99z"
                        class="st2"
                      ></path>
                      <path
                        _ngcontent-qpc-c207=""
                        d="M1210.75,436.51c-6.2,0-10.63-1.32-13.28-3.98c-2.65-2.65-3.98-6.2-3.98-10.66c0-2.39,0.42-5.22,1.27-8.51
                      l15.51-57.98c1.86-6.63,5.09-12.14,9.7-16.54c4.61-4.4,10.82-6.6,18.61-6.6h78.03l-4.53,17.42h-33.41c-2.49,0-4.49,0.77-6,2.31
                      c-1.51,1.54-2.61,3.55-3.3,6.04l-4.22,15.59h34.36l-4.69,17.66h-34.36l-5.25,20.04c-0.32,1.17-0.48,2.17-0.48,3.02
                      c0,3.18,2.39,4.77,7.16,4.77h31.58l-4.69,17.42H1210.75z"
                        class="st2"
                      ></path>
                      <path
                        _ngcontent-qpc-c207=""
                        d="M1374.32,436.51l-0.79-18.37h-39.61l-11.21,18.37h-19.88l61.4-104.28h67.61l3.74,104.28H1374.32z
                      M1372.88,351.96l-27.52,47.56h27.84L1372.88,351.96z"
                        class="st2"
                      ></path>
                      <path
                        _ngcontent-qpc-c207=""
                        d="M1603.66,413.36c-1.86,7.16-5.12,12.81-9.78,16.94s-10.87,6.2-18.61,6.2h-126.71l28-104.28h126.79
                      c5.83,0,10.14,1.37,12.92,4.1c2.78,2.73,4.18,6.38,4.18,10.94c0,2.7-0.4,5.41-1.19,8.11L1603.66,413.36z M1560.31,357.37
                      c0.21-1.11,0.32-1.94,0.32-2.47c0-1.64-0.46-2.96-1.39-3.94c-0.93-0.98-2.27-1.47-4.02-1.47h-24.74l-18.69,69.76h23.23
                      c3.18,0,5.58-0.6,7.2-1.79c1.62-1.19,2.82-3.19,3.62-6.01L1560.31,357.37z"
                        class="st2"
                      ></path>
                    </g>
                  </g>
                  <g _ngcontent-qpc-c207="">
                    <g _ngcontent-qpc-c207="">
                      <path
                        _ngcontent-qpc-c207=""
                        d="M751.25,482.32h6.32v34.01h-6.32V482.32z"
                        class="st3"
                      ></path>
                      <path
                        _ngcontent-qpc-c207=""
                        d="M801.84,482.32v34.01h-5.2l-18.76-23.03v23.03h-6.27v-34.01h5.2l18.76,23.03v-23.03H801.84z"
                        class="st3"
                      ></path>
                      <path
                        _ngcontent-qpc-c207=""
                        d="M818.77,515.71c-2.45-0.74-4.38-1.73-5.81-2.96l2.19-4.91c1.39,1.1,3.1,2,5.13,2.7
                      c2.02,0.7,4.06,1.04,6.1,1.04c2.53,0,4.41-0.4,5.66-1.21c1.25-0.81,1.87-1.88,1.87-3.21c0-0.97-0.35-1.77-1.04-2.41
                      c-0.7-0.63-1.58-1.13-2.65-1.48c-1.07-0.36-2.53-0.76-4.37-1.21c-2.59-0.61-4.69-1.23-6.29-1.85c-1.6-0.61-2.98-1.58-4.13-2.89
                      c-1.15-1.31-1.72-3.09-1.72-5.32c0-1.88,0.51-3.59,1.53-5.13c1.02-1.54,2.56-2.76,4.62-3.67c2.06-0.91,4.58-1.36,7.56-1.36
                      c2.07,0,4.11,0.26,6.12,0.78c2.01,0.52,3.74,1.26,5.2,2.24l-1.99,4.91c-1.49-0.87-3.05-1.54-4.67-1.99
                      c-1.62-0.45-3.19-0.68-4.71-0.68c-2.5,0-4.35,0.42-5.56,1.26c-1.21,0.84-1.82,1.96-1.82,3.35c0,0.97,0.35,1.77,1.04,2.38
                      c0.7,0.62,1.58,1.1,2.65,1.46c1.07,0.36,2.53,0.76,4.37,1.21c2.53,0.58,4.6,1.19,6.22,1.82c1.62,0.63,3,1.6,4.15,2.89
                      c1.15,1.3,1.73,3.05,1.73,5.25c0,1.88-0.51,3.58-1.53,5.1c-1.02,1.52-2.57,2.74-4.64,3.64c-2.07,0.91-4.6,1.36-7.58,1.36
                      C823.75,516.82,821.22,516.45,818.77,515.71z"
                        class="st3"
                      ></path>
                      <path
                        _ngcontent-qpc-c207=""
                        d="M857.67,487.67H846.4v-5.34h28.86v5.34h-11.27v28.67h-6.32V487.67z"
                        class="st3"
                      ></path>
                      <path
                        _ngcontent-qpc-c207=""
                        d="M905.24,508.47h-17.01l-3.35,7.87h-6.51l15.31-34.01h6.22l15.35,34.01h-6.61L905.24,508.47z M903.15,503.51
                      l-6.41-14.87l-6.37,14.87H903.15z"
                        class="st3"
                      ></path>
                      <path
                        _ngcontent-qpc-c207=""
                        d="M954.66,482.32v34.01h-5.2l-18.76-23.03v23.03h-6.27v-34.01h5.2l18.76,23.03v-23.03H954.66z"
                        class="st3"
                      ></path>
                      <path
                        _ngcontent-qpc-c207=""
                        d="M975.55,487.67h-11.27v-5.34h28.86v5.34h-11.27v28.67h-6.32V487.67z"
                        class="st3"
                      ></path>
                      <path
                        _ngcontent-qpc-c207=""
                        d="M1052.27,516.34l-0.05-22.55l-11.18,18.66h-2.82l-11.18-18.37v22.25h-6.03v-34.01h5.2l13.51,22.55
                      l13.26-22.55h5.2l0.05,34.01H1052.27z"
                        class="st3"
                      ></path>
                      <path
                        _ngcontent-qpc-c207=""
                        d="M1078.8,514.56c-2.79-1.51-4.97-3.6-6.56-6.27c-1.59-2.67-2.38-5.66-2.38-8.97s0.79-6.29,2.38-8.97
                      s3.77-4.76,6.56-6.27c2.79-1.51,5.91-2.26,9.38-2.26c3.47,0,6.59,0.75,9.38,2.26c2.79,1.51,4.97,3.59,6.56,6.24
                      c1.59,2.66,2.38,5.65,2.38,8.99c0,3.34-0.79,6.33-2.38,8.99c-1.59,2.66-3.77,4.74-6.56,6.24c-2.79,1.51-5.91,2.26-9.38,2.26
                      C1084.72,516.82,1081.59,516.07,1078.8,514.56z M1094.3,509.75c1.81-1.02,3.24-2.45,4.28-4.28c1.04-1.83,1.55-3.88,1.55-6.15
                      c0-2.27-0.52-4.32-1.55-6.15c-1.04-1.83-2.46-3.26-4.28-4.28s-3.86-1.53-6.12-1.53c-2.27,0-4.31,0.51-6.12,1.53
                      s-3.24,2.45-4.28,4.28c-1.04,1.83-1.55,3.88-1.55,6.15c0,2.27,0.52,4.32,1.55,6.15c1.04,1.83,2.46,3.26,4.28,4.28
                      c1.81,1.02,3.86,1.53,6.12,1.53C1090.45,511.28,1092.49,510.77,1094.3,509.75z"
                        class="st3"
                      ></path>
                      <path
                        _ngcontent-qpc-c207=""
                        d="M1124.48,487.67h-11.27v-5.34h28.86v5.34h-11.27v28.67h-6.32V487.67z"
                        class="st3"
                      ></path>
                      <path
                        _ngcontent-qpc-c207=""
                        d="M1151.69,482.32h6.32v34.01h-6.32V482.32z"
                        class="st3"
                      ></path>
                      <path
                        _ngcontent-qpc-c207=""
                        d="M1202.9,482.32l-14.82,34.01h-6.22L1167,482.32h6.85l11.32,26.24l11.42-26.24H1202.9z"
                        class="st3"
                      ></path>
                      <path
                        _ngcontent-qpc-c207=""
                        d="M1232.35,508.47h-17.01l-3.35,7.87h-6.51l15.31-34.01h6.22l15.35,34.01h-6.61L1232.35,508.47z
                      M1230.26,503.51l-6.41-14.87l-6.37,14.87H1230.26z"
                        class="st3"
                      ></path>
                      <path
                        _ngcontent-qpc-c207=""
                        d="M1256.74,487.67h-11.27v-5.34h28.86v5.34h-11.27v28.67h-6.32V487.67z"
                        class="st3"
                      ></path>
                      <path
                        _ngcontent-qpc-c207=""
                        d="M1309.46,511.04v5.3h-25.51v-34.01h24.83v5.3h-18.51v8.84h16.42v5.2h-16.42v9.38H1309.46z"
                        class="st3"
                      ></path>
                      <path
                        _ngcontent-qpc-c207=""
                        d="M1321.37,482.32h14.87c3.63,0,6.85,0.7,9.67,2.11c2.82,1.41,5,3.4,6.56,5.98s2.33,5.55,2.33,8.92
                      c0,3.37-0.78,6.34-2.33,8.92c-1.55,2.58-3.74,4.57-6.56,5.98s-6.04,2.11-9.67,2.11h-14.87V482.32z M1335.95,510.99
                      c2.49,0,4.69-0.48,6.58-1.43c1.9-0.96,3.35-2.32,4.37-4.08c1.02-1.77,1.53-3.81,1.53-6.15c0-2.33-0.51-4.38-1.53-6.15
                      c-1.02-1.77-2.48-3.13-4.37-4.08c-1.89-0.96-4.09-1.43-6.58-1.43h-8.26v23.32H1335.95z"
                        class="st3"
                      ></path>
                      <path
                        _ngcontent-qpc-c207=""
                        d="M1387.57,515.71c-2.45-0.74-4.38-1.73-5.81-2.96l2.19-4.91c1.39,1.1,3.1,2,5.13,2.7
                      c2.02,0.7,4.06,1.04,6.1,1.04c2.53,0,4.41-0.4,5.66-1.21c1.25-0.81,1.87-1.88,1.87-3.21c0-0.97-0.35-1.77-1.04-2.41
                      c-0.7-0.63-1.58-1.13-2.65-1.48c-1.07-0.36-2.53-0.76-4.37-1.21c-2.59-0.61-4.69-1.23-6.29-1.85c-1.6-0.61-2.98-1.58-4.13-2.89
                      c-1.15-1.31-1.72-3.09-1.72-5.32c0-1.88,0.51-3.59,1.53-5.13c1.02-1.54,2.56-2.76,4.62-3.67c2.06-0.91,4.58-1.36,7.56-1.36
                      c2.07,0,4.11,0.26,6.12,0.78c2.01,0.52,3.74,1.26,5.2,2.24l-1.99,4.91c-1.49-0.87-3.05-1.54-4.67-1.99
                      c-1.62-0.45-3.19-0.68-4.71-0.68c-2.5,0-4.35,0.42-5.56,1.26c-1.21,0.84-1.82,1.96-1.82,3.35c0,0.97,0.35,1.77,1.04,2.38
                      c0.7,0.62,1.58,1.1,2.65,1.46c1.07,0.36,2.53,0.76,4.37,1.21c2.53,0.58,4.6,1.19,6.22,1.82c1.62,0.63,3,1.6,4.15,2.89
                      c1.15,1.3,1.73,3.05,1.73,5.25c0,1.88-0.51,3.58-1.53,5.1c-1.02,1.52-2.57,2.74-4.64,3.64c-2.07,0.91-4.6,1.36-7.58,1.36
                      C1392.55,516.82,1390.02,516.45,1387.57,515.71z"
                        class="st3"
                      ></path>
                      <path
                        _ngcontent-qpc-c207=""
                        d="M1445.57,511.04v5.3h-25.51v-34.01h24.83v5.3h-18.51v8.84h16.42v5.2h-16.42v9.38H1445.57z"
                        class="st3"
                      ></path>
                      <path
                        _ngcontent-qpc-c207=""
                        d="M1457.47,482.32h6.32v28.67h17.78v5.35h-24.1V482.32z"
                        class="st3"
                      ></path>
                      <path
                        _ngcontent-qpc-c207=""
                        d="M1491.43,482.32h6.32v28.67h17.78v5.35h-24.1V482.32z"
                        class="st3"
                      ></path>
                      <path
                        _ngcontent-qpc-c207=""
                        d="M1550.91,511.04v5.3h-25.51v-34.01h24.83v5.3h-18.51v8.84h16.42v5.2h-16.42v9.38H1550.91z"
                        class="st3"
                      ></path>
                      <path
                        _ngcontent-qpc-c207=""
                        d="M1585.07,516.34l-6.95-9.96c-0.29,0.03-0.73,0.05-1.31,0.05h-7.68v9.91h-6.32v-34.01h13.99
                      c2.95,0,5.52,0.49,7.7,1.46c2.19,0.97,3.86,2.37,5.03,4.18c1.17,1.81,1.75,3.97,1.75,6.46c0,2.56-0.62,4.76-1.87,6.61
                      s-3.04,3.22-5.37,4.13l7.82,11.18H1585.07z M1582.79,489.42c-1.43-1.17-3.51-1.75-6.27-1.75h-7.39v13.56h7.39
                      c2.75,0,4.84-0.59,6.27-1.77c1.43-1.18,2.14-2.86,2.14-5.03C1584.92,492.25,1584.21,490.59,1582.79,489.42z"
                        class="st3"
                      ></path>
                      <path
                        _ngcontent-qpc-c207=""
                        d="M853.1,538.73h6.32v28.67h17.78v5.34h-24.1V538.73z"
                        class="st3"
                      ></path>
                      <path
                        _ngcontent-qpc-c207=""
                        d="M912.58,567.44v5.3h-25.51v-34.01h24.83v5.3h-18.51v8.84h16.42v5.2h-16.42v9.38H912.58z"
                        class="st3"
                      ></path>
                      <path
                        _ngcontent-qpc-c207=""
                        d="M946.54,564.87h-17.01l-3.35,7.87h-6.51l15.31-34.01h6.22l15.35,34.01h-6.61L946.54,564.87z M944.45,559.91
                      l-6.41-14.87l-6.37,14.87H944.45z"
                        class="st3"
                      ></path>
                      <path
                        _ngcontent-qpc-c207=""
                        d="M965.74,538.73h14.87c3.63,0,6.85,0.7,9.67,2.11c2.82,1.41,5,3.4,6.56,5.98s2.33,5.55,2.33,8.92
                      c0,3.37-0.78,6.34-2.33,8.92c-1.55,2.58-3.74,4.57-6.56,5.98s-6.04,2.11-9.67,2.11h-14.87V538.73z M980.31,567.39
                      c2.49,0,4.69-0.48,6.58-1.43c1.9-0.96,3.35-2.32,4.37-4.08c1.02-1.77,1.53-3.81,1.53-6.15c0-2.33-0.51-4.38-1.53-6.15
                      c-1.02-1.77-2.48-3.13-4.37-4.08c-1.89-0.96-4.09-1.43-6.58-1.43h-8.26v23.32H980.31z"
                        class="st3"
                      ></path>
                      <path
                        _ngcontent-qpc-c207=""
                        d="M1013.67,572.11c-2.45-0.74-4.38-1.73-5.81-2.96l2.19-4.91c1.39,1.1,3.1,2,5.13,2.7
                      c2.02,0.7,4.06,1.04,6.1,1.04c2.53,0,4.41-0.4,5.66-1.21c1.25-0.81,1.87-1.88,1.87-3.21c0-0.97-0.35-1.77-1.04-2.41
                      c-0.7-0.63-1.58-1.13-2.65-1.48c-1.07-0.36-2.53-0.76-4.37-1.21c-2.59-0.61-4.69-1.23-6.29-1.85c-1.6-0.61-2.98-1.58-4.13-2.89
                      c-1.15-1.31-1.72-3.09-1.72-5.32c0-1.88,0.51-3.59,1.53-5.13c1.02-1.54,2.56-2.76,4.62-3.67c2.06-0.91,4.58-1.36,7.56-1.36
                      c2.07,0,4.11,0.26,6.12,0.78c2.01,0.52,3.74,1.26,5.2,2.24l-1.99,4.91c-1.49-0.87-3.05-1.54-4.67-1.99
                      c-1.62-0.45-3.19-0.68-4.71-0.68c-2.5,0-4.35,0.42-5.56,1.26c-1.21,0.84-1.82,1.96-1.82,3.35c0,0.97,0.35,1.77,1.04,2.38
                      c0.7,0.62,1.58,1.1,2.65,1.46c1.07,0.36,2.53,0.76,4.37,1.21c2.53,0.58,4.6,1.19,6.22,1.82c1.62,0.63,3,1.6,4.15,2.89
                      c1.15,1.3,1.73,3.05,1.73,5.25c0,1.88-0.51,3.58-1.53,5.1c-1.02,1.52-2.57,2.74-4.64,3.64c-2.07,0.91-4.6,1.36-7.58,1.36
                      C1018.65,573.22,1016.12,572.85,1013.67,572.11z"
                        class="st3"
                      ></path>
                      <path
                        _ngcontent-qpc-c207=""
                        d="M1095.67,572.74l-0.05-22.55l-11.18,18.66h-2.82l-11.18-18.37v22.25h-6.03v-34.01h5.2l13.51,22.55
                      l13.26-22.55h5.2l0.05,34.01H1095.67z"
                        class="st3"
                      ></path>
                      <path
                        _ngcontent-qpc-c207=""
                        d="M1137.75,564.87h-17.01l-3.35,7.87h-6.51l15.31-34.01h6.22l15.35,34.01h-6.61L1137.75,564.87z
                      M1135.66,559.91l-6.41-14.87l-6.37,14.87H1135.66z"
                        class="st3"
                      ></path>
                      <path
                        _ngcontent-qpc-c207=""
                        d="M1179.19,572.74l-6.95-9.96c-0.29,0.03-0.73,0.05-1.31,0.05h-7.68v9.91h-6.32v-34.01h13.99
                      c2.95,0,5.52,0.49,7.7,1.46c2.19,0.97,3.86,2.37,5.03,4.18c1.17,1.81,1.75,3.97,1.75,6.46c0,2.56-0.62,4.76-1.87,6.61
                      s-3.04,3.22-5.37,4.13l7.82,11.18H1179.19z M1176.91,545.82c-1.43-1.17-3.51-1.75-6.27-1.75h-7.39v13.56h7.39
                      c2.75,0,4.84-0.59,6.27-1.77c1.43-1.18,2.14-2.86,2.14-5.03C1179.05,548.65,1178.34,546.99,1176.91,545.82z"
                        class="st3"
                      ></path>
                      <path
                        _ngcontent-qpc-c207=""
                        d="M1209.03,558.5l-5.39,5.54v8.7h-6.32v-34.01h6.32v17.44l16.81-17.44h7.09l-14.29,15.21l15.16,18.8h-7.39
                      L1209.03,558.5z"
                        class="st3"
                      ></path>
                      <path
                        _ngcontent-qpc-c207=""
                        d="M1263.11,567.44v5.3h-25.51v-34.01h24.83v5.3h-18.51v8.84h16.42v5.2h-16.42v9.38H1263.11z"
                        class="st3"
                      ></path>
                      <path
                        _ngcontent-qpc-c207=""
                        d="M1281.91,544.07h-11.27v-5.34h28.86v5.34h-11.27v28.67h-6.32V544.07z"
                        class="st3"
                      ></path>
                      <path
                        _ngcontent-qpc-c207=""
                        d="M1330.82,540.18c2.19,0.97,3.86,2.37,5.03,4.18c1.17,1.81,1.75,3.97,1.75,6.46c0,2.46-0.58,4.61-1.75,6.44
                      c-1.17,1.83-2.84,3.23-5.03,4.2c-2.19,0.97-4.75,1.46-7.7,1.46h-7.68v9.82h-6.32v-34.01h13.99
                      C1326.07,538.73,1328.63,539.21,1330.82,540.18z M1329.09,555.83c1.43-1.17,2.14-2.83,2.14-5c0-2.17-0.71-3.84-2.14-5
                      s-3.51-1.75-6.27-1.75h-7.39v13.51h7.39C1325.58,557.58,1327.67,557,1329.09,555.83z"
                        class="st3"
                      ></path>
                      <path
                        _ngcontent-qpc-c207=""
                        d="M1348.77,538.73h6.32v28.67h17.78v5.34h-24.1V538.73z"
                        class="st3"
                      ></path>
                      <path
                        _ngcontent-qpc-c207=""
                        d="M1405.04,564.87h-17.01l-3.35,7.87h-6.51l15.31-34.01h6.22l15.35,34.01h-6.61L1405.04,564.87z
                      M1402.95,559.91l-6.41-14.87l-6.37,14.87H1402.95z"
                        class="st3"
                      ></path>
                      <path
                        _ngcontent-qpc-c207=""
                        d="M1430.19,570.97c-2.77-1.51-4.94-3.59-6.51-6.24c-1.57-2.66-2.36-5.65-2.36-8.99c0-3.34,0.79-6.33,2.38-8.99
                      c1.59-2.66,3.77-4.74,6.54-6.24s5.87-2.26,9.3-2.26c2.79,0,5.33,0.49,7.63,1.46c2.3,0.97,4.24,2.38,5.83,4.23l-4.08,3.84
                      c-2.46-2.66-5.49-3.98-9.09-3.98c-2.33,0-4.42,0.51-6.27,1.53s-3.29,2.44-4.32,4.25c-1.04,1.81-1.55,3.87-1.55,6.17
                      c0,2.3,0.52,4.36,1.55,6.17c1.04,1.81,2.48,3.23,4.32,4.25c1.85,1.02,3.94,1.53,6.27,1.53c3.6,0,6.62-1.34,9.09-4.03l4.08,3.89
                      c-1.59,1.85-3.54,3.26-5.86,4.23c-2.32,0.97-4.87,1.46-7.65,1.46C1436.06,573.22,1432.96,572.47,1430.19,570.97z"
                        class="st3"
                      ></path>
                      <path
                        _ngcontent-qpc-c207=""
                        d="M1489.45,567.44v5.3h-25.51v-34.01h24.83v5.3h-18.51v8.84h16.42v5.2h-16.42v9.38H1489.45z"
                        class="st3"
                      ></path>
                    </g>
                    <g _ngcontent-qpc-c207="">
                      <path
                        _ngcontent-qpc-c207=""
                        d="M751.25,482.32h6.32v34.01h-6.32V482.32z"
                        class="st4"
                      ></path>
                      <path
                        _ngcontent-qpc-c207=""
                        d="M801.84,482.32v34.01h-5.2l-18.76-23.03v23.03h-6.27v-34.01h5.2l18.76,23.03v-23.03H801.84z"
                        class="st4"
                      ></path>
                      <path
                        _ngcontent-qpc-c207=""
                        d="M818.77,515.71c-2.45-0.74-4.38-1.73-5.81-2.96l2.19-4.91c1.39,1.1,3.1,2,5.13,2.7
                      c2.02,0.7,4.06,1.04,6.1,1.04c2.53,0,4.41-0.4,5.66-1.21c1.25-0.81,1.87-1.88,1.87-3.21c0-0.97-0.35-1.77-1.04-2.41
                      c-0.7-0.63-1.58-1.13-2.65-1.48c-1.07-0.36-2.53-0.76-4.37-1.21c-2.59-0.61-4.69-1.23-6.29-1.85c-1.6-0.61-2.98-1.58-4.13-2.89
                      c-1.15-1.31-1.72-3.09-1.72-5.32c0-1.88,0.51-3.59,1.53-5.13c1.02-1.54,2.56-2.76,4.62-3.67c2.06-0.91,4.58-1.36,7.56-1.36
                      c2.07,0,4.11,0.26,6.12,0.78c2.01,0.52,3.74,1.26,5.2,2.24l-1.99,4.91c-1.49-0.87-3.05-1.54-4.67-1.99
                      c-1.62-0.45-3.19-0.68-4.71-0.68c-2.5,0-4.35,0.42-5.56,1.26c-1.21,0.84-1.82,1.96-1.82,3.35c0,0.97,0.35,1.77,1.04,2.38
                      c0.7,0.62,1.58,1.1,2.65,1.46c1.07,0.36,2.53,0.76,4.37,1.21c2.53,0.58,4.6,1.19,6.22,1.82c1.62,0.63,3,1.6,4.15,2.89
                      c1.15,1.3,1.73,3.05,1.73,5.25c0,1.88-0.51,3.58-1.53,5.1c-1.02,1.52-2.57,2.74-4.64,3.64c-2.07,0.91-4.6,1.36-7.58,1.36
                      C823.75,516.82,821.22,516.45,818.77,515.71z"
                        class="st4"
                      ></path>
                      <path
                        _ngcontent-qpc-c207=""
                        d="M857.67,487.67H846.4v-5.34h28.86v5.34h-11.27v28.67h-6.32V487.67z"
                        class="st4"
                      ></path>
                      <path
                        _ngcontent-qpc-c207=""
                        d="M905.24,508.47h-17.01l-3.35,7.87h-6.51l15.31-34.01h6.22l15.35,34.01h-6.61L905.24,508.47z M903.15,503.51
                      l-6.41-14.87l-6.37,14.87H903.15z"
                        class="st4"
                      ></path>
                      <path
                        _ngcontent-qpc-c207=""
                        d="M954.66,482.32v34.01h-5.2l-18.76-23.03v23.03h-6.27v-34.01h5.2l18.76,23.03v-23.03H954.66z"
                        class="st4"
                      ></path>
                      <path
                        _ngcontent-qpc-c207=""
                        d="M975.55,487.67h-11.27v-5.34h28.86v5.34h-11.27v28.67h-6.32V487.67z"
                        class="st4"
                      ></path>
                      <path
                        _ngcontent-qpc-c207=""
                        d="M1052.27,516.34l-0.05-22.55l-11.18,18.66h-2.82l-11.18-18.37v22.25h-6.03v-34.01h5.2l13.51,22.55
                      l13.26-22.55h5.2l0.05,34.01H1052.27z"
                        class="st4"
                      ></path>
                      <path
                        _ngcontent-qpc-c207=""
                        d="M1078.8,514.56c-2.79-1.51-4.97-3.6-6.56-6.27c-1.59-2.67-2.38-5.66-2.38-8.97s0.79-6.29,2.38-8.97
                      s3.77-4.76,6.56-6.27c2.79-1.51,5.91-2.26,9.38-2.26c3.47,0,6.59,0.75,9.38,2.26c2.79,1.51,4.97,3.59,6.56,6.24
                      c1.59,2.66,2.38,5.65,2.38,8.99c0,3.34-0.79,6.33-2.38,8.99c-1.59,2.66-3.77,4.74-6.56,6.24c-2.79,1.51-5.91,2.26-9.38,2.26
                      C1084.72,516.82,1081.59,516.07,1078.8,514.56z M1094.3,509.75c1.81-1.02,3.24-2.45,4.28-4.28c1.04-1.83,1.55-3.88,1.55-6.15
                      c0-2.27-0.52-4.32-1.55-6.15c-1.04-1.83-2.46-3.26-4.28-4.28s-3.86-1.53-6.12-1.53c-2.27,0-4.31,0.51-6.12,1.53
                      s-3.24,2.45-4.28,4.28c-1.04,1.83-1.55,3.88-1.55,6.15c0,2.27,0.52,4.32,1.55,6.15c1.04,1.83,2.46,3.26,4.28,4.28
                      c1.81,1.02,3.86,1.53,6.12,1.53C1090.45,511.28,1092.49,510.77,1094.3,509.75z"
                        class="st4"
                      ></path>
                      <path
                        _ngcontent-qpc-c207=""
                        d="M1124.48,487.67h-11.27v-5.34h28.86v5.34h-11.27v28.67h-6.32V487.67z"
                        class="st4"
                      ></path>
                      <path
                        _ngcontent-qpc-c207=""
                        d="M1151.69,482.32h6.32v34.01h-6.32V482.32z"
                        class="st4"
                      ></path>
                      <path
                        _ngcontent-qpc-c207=""
                        d="M1202.9,482.32l-14.82,34.01h-6.22L1167,482.32h6.85l11.32,26.24l11.42-26.24H1202.9z"
                        class="st4"
                      ></path>
                      <path
                        _ngcontent-qpc-c207=""
                        d="M1232.35,508.47h-17.01l-3.35,7.87h-6.51l15.31-34.01h6.22l15.35,34.01h-6.61L1232.35,508.47z
                      M1230.26,503.51l-6.41-14.87l-6.37,14.87H1230.26z"
                        class="st4"
                      ></path>
                      <path
                        _ngcontent-qpc-c207=""
                        d="M1256.74,487.67h-11.27v-5.34h28.86v5.34h-11.27v28.67h-6.32V487.67z"
                        class="st4"
                      ></path>
                      <path
                        _ngcontent-qpc-c207=""
                        d="M1309.46,511.04v5.3h-25.51v-34.01h24.83v5.3h-18.51v8.84h16.42v5.2h-16.42v9.38H1309.46z"
                        class="st4"
                      ></path>
                      <path
                        _ngcontent-qpc-c207=""
                        d="M1321.37,482.32h14.87c3.63,0,6.85,0.7,9.67,2.11c2.82,1.41,5,3.4,6.56,5.98s2.33,5.55,2.33,8.92
                      c0,3.37-0.78,6.34-2.33,8.92c-1.55,2.58-3.74,4.57-6.56,5.98s-6.04,2.11-9.67,2.11h-14.87V482.32z M1335.95,510.99
                      c2.49,0,4.69-0.48,6.58-1.43c1.9-0.96,3.35-2.32,4.37-4.08c1.02-1.77,1.53-3.81,1.53-6.15c0-2.33-0.51-4.38-1.53-6.15
                      c-1.02-1.77-2.48-3.13-4.37-4.08c-1.89-0.96-4.09-1.43-6.58-1.43h-8.26v23.32H1335.95z"
                        class="st4"
                      ></path>
                      <path
                        _ngcontent-qpc-c207=""
                        d="M1387.57,515.71c-2.45-0.74-4.38-1.73-5.81-2.96l2.19-4.91c1.39,1.1,3.1,2,5.13,2.7
                      c2.02,0.7,4.06,1.04,6.1,1.04c2.53,0,4.41-0.4,5.66-1.21c1.25-0.81,1.87-1.88,1.87-3.21c0-0.97-0.35-1.77-1.04-2.41
                      c-0.7-0.63-1.58-1.13-2.65-1.48c-1.07-0.36-2.53-0.76-4.37-1.21c-2.59-0.61-4.69-1.23-6.29-1.85c-1.6-0.61-2.98-1.58-4.13-2.89
                      c-1.15-1.31-1.72-3.09-1.72-5.32c0-1.88,0.51-3.59,1.53-5.13c1.02-1.54,2.56-2.76,4.62-3.67c2.06-0.91,4.58-1.36,7.56-1.36
                      c2.07,0,4.11,0.26,6.12,0.78c2.01,0.52,3.74,1.26,5.2,2.24l-1.99,4.91c-1.49-0.87-3.05-1.54-4.67-1.99
                      c-1.62-0.45-3.19-0.68-4.71-0.68c-2.5,0-4.35,0.42-5.56,1.26c-1.21,0.84-1.82,1.96-1.82,3.35c0,0.97,0.35,1.77,1.04,2.38
                      c0.7,0.62,1.58,1.1,2.65,1.46c1.07,0.36,2.53,0.76,4.37,1.21c2.53,0.58,4.6,1.19,6.22,1.82c1.62,0.63,3,1.6,4.15,2.89
                      c1.15,1.3,1.73,3.05,1.73,5.25c0,1.88-0.51,3.58-1.53,5.1c-1.02,1.52-2.57,2.74-4.64,3.64c-2.07,0.91-4.6,1.36-7.58,1.36
                      C1392.55,516.82,1390.02,516.45,1387.57,515.71z"
                        class="st4"
                      ></path>
                      <path
                        _ngcontent-qpc-c207=""
                        d="M1445.57,511.04v5.3h-25.51v-34.01h24.83v5.3h-18.51v8.84h16.42v5.2h-16.42v9.38H1445.57z"
                        class="st4"
                      ></path>
                      <path
                        _ngcontent-qpc-c207=""
                        d="M1457.47,482.32h6.32v28.67h17.78v5.35h-24.1V482.32z"
                        class="st4"
                      ></path>
                      <path
                        _ngcontent-qpc-c207=""
                        d="M1491.43,482.32h6.32v28.67h17.78v5.35h-24.1V482.32z"
                        class="st4"
                      ></path>
                      <path
                        _ngcontent-qpc-c207=""
                        d="M1550.91,511.04v5.3h-25.51v-34.01h24.83v5.3h-18.51v8.84h16.42v5.2h-16.42v9.38H1550.91z"
                        class="st4"
                      ></path>
                      <path
                        _ngcontent-qpc-c207=""
                        d="M1585.07,516.34l-6.95-9.96c-0.29,0.03-0.73,0.05-1.31,0.05h-7.68v9.91h-6.32v-34.01h13.99
                      c2.95,0,5.52,0.49,7.7,1.46c2.19,0.97,3.86,2.37,5.03,4.18c1.17,1.81,1.75,3.97,1.75,6.46c0,2.56-0.62,4.76-1.87,6.61
                      s-3.04,3.22-5.37,4.13l7.82,11.18H1585.07z M1582.79,489.42c-1.43-1.17-3.51-1.75-6.27-1.75h-7.39v13.56h7.39
                      c2.75,0,4.84-0.59,6.27-1.77c1.43-1.18,2.14-2.86,2.14-5.03C1584.92,492.25,1584.21,490.59,1582.79,489.42z"
                        class="st4"
                      ></path>
                      <path
                        _ngcontent-qpc-c207=""
                        d="M853.1,538.73h6.32v28.67h17.78v5.34h-24.1V538.73z"
                        class="st4"
                      ></path>
                      <path
                        _ngcontent-qpc-c207=""
                        d="M912.58,567.44v5.3h-25.51v-34.01h24.83v5.3h-18.51v8.84h16.42v5.2h-16.42v9.38H912.58z"
                        class="st4"
                      ></path>
                      <path
                        _ngcontent-qpc-c207=""
                        d="M946.54,564.87h-17.01l-3.35,7.87h-6.51l15.31-34.01h6.22l15.35,34.01h-6.61L946.54,564.87z M944.45,559.91
                      l-6.41-14.87l-6.37,14.87H944.45z"
                        class="st4"
                      ></path>
                      <path
                        _ngcontent-qpc-c207=""
                        d="M965.74,538.73h14.87c3.63,0,6.85,0.7,9.67,2.11c2.82,1.41,5,3.4,6.56,5.98s2.33,5.55,2.33,8.92
                      c0,3.37-0.78,6.34-2.33,8.92c-1.55,2.58-3.74,4.57-6.56,5.98s-6.04,2.11-9.67,2.11h-14.87V538.73z M980.31,567.39
                      c2.49,0,4.69-0.48,6.58-1.43c1.9-0.96,3.35-2.32,4.37-4.08c1.02-1.77,1.53-3.81,1.53-6.15c0-2.33-0.51-4.38-1.53-6.15
                      c-1.02-1.77-2.48-3.13-4.37-4.08c-1.89-0.96-4.09-1.43-6.58-1.43h-8.26v23.32H980.31z"
                        class="st4"
                      ></path>
                      <path
                        _ngcontent-qpc-c207=""
                        d="M1013.67,572.11c-2.45-0.74-4.38-1.73-5.81-2.96l2.19-4.91c1.39,1.1,3.1,2,5.13,2.7
                      c2.02,0.7,4.06,1.04,6.1,1.04c2.53,0,4.41-0.4,5.66-1.21c1.25-0.81,1.87-1.88,1.87-3.21c0-0.97-0.35-1.77-1.04-2.41
                      c-0.7-0.63-1.58-1.13-2.65-1.48c-1.07-0.36-2.53-0.76-4.37-1.21c-2.59-0.61-4.69-1.23-6.29-1.85c-1.6-0.61-2.98-1.58-4.13-2.89
                      c-1.15-1.31-1.72-3.09-1.72-5.32c0-1.88,0.51-3.59,1.53-5.13c1.02-1.54,2.56-2.76,4.62-3.67c2.06-0.91,4.58-1.36,7.56-1.36
                      c2.07,0,4.11,0.26,6.12,0.78c2.01,0.52,3.74,1.26,5.2,2.24l-1.99,4.91c-1.49-0.87-3.05-1.54-4.67-1.99
                      c-1.62-0.45-3.19-0.68-4.71-0.68c-2.5,0-4.35,0.42-5.56,1.26c-1.21,0.84-1.82,1.96-1.82,3.35c0,0.97,0.35,1.77,1.04,2.38
                      c0.7,0.62,1.58,1.1,2.65,1.46c1.07,0.36,2.53,0.76,4.37,1.21c2.53,0.58,4.6,1.19,6.22,1.82c1.62,0.63,3,1.6,4.15,2.89
                      c1.15,1.3,1.73,3.05,1.73,5.25c0,1.88-0.51,3.58-1.53,5.1c-1.02,1.52-2.57,2.74-4.64,3.64c-2.07,0.91-4.6,1.36-7.58,1.36
                      C1018.65,573.22,1016.12,572.85,1013.67,572.11z"
                        class="st4"
                      ></path>
                      <path
                        _ngcontent-qpc-c207=""
                        d="M1095.67,572.74l-0.05-22.55l-11.18,18.66h-2.82l-11.18-18.37v22.25h-6.03v-34.01h5.2l13.51,22.55
                      l13.26-22.55h5.2l0.05,34.01H1095.67z"
                        class="st4"
                      ></path>
                      <path
                        _ngcontent-qpc-c207=""
                        d="M1137.75,564.87h-17.01l-3.35,7.87h-6.51l15.31-34.01h6.22l15.35,34.01h-6.61L1137.75,564.87z
                      M1135.66,559.91l-6.41-14.87l-6.37,14.87H1135.66z"
                        class="st4"
                      ></path>
                      <path
                        _ngcontent-qpc-c207=""
                        d="M1179.19,572.74l-6.95-9.96c-0.29,0.03-0.73,0.05-1.31,0.05h-7.68v9.91h-6.32v-34.01h13.99
                      c2.95,0,5.52,0.49,7.7,1.46c2.19,0.97,3.86,2.37,5.03,4.18c1.17,1.81,1.75,3.97,1.75,6.46c0,2.56-0.62,4.76-1.87,6.61
                      s-3.04,3.22-5.37,4.13l7.82,11.18H1179.19z M1176.91,545.82c-1.43-1.17-3.51-1.75-6.27-1.75h-7.39v13.56h7.39
                      c2.75,0,4.84-0.59,6.27-1.77c1.43-1.18,2.14-2.86,2.14-5.03C1179.05,548.65,1178.34,546.99,1176.91,545.82z"
                        class="st4"
                      ></path>
                      <path
                        _ngcontent-qpc-c207=""
                        d="M1209.03,558.5l-5.39,5.54v8.7h-6.32v-34.01h6.32v17.44l16.81-17.44h7.09l-14.29,15.21l15.16,18.8h-7.39
                      L1209.03,558.5z"
                        class="st4"
                      ></path>
                      <path
                        _ngcontent-qpc-c207=""
                        d="M1263.11,567.44v5.3h-25.51v-34.01h24.83v5.3h-18.51v8.84h16.42v5.2h-16.42v9.38H1263.11z"
                        class="st4"
                      ></path>
                      <path
                        _ngcontent-qpc-c207=""
                        d="M1281.91,544.07h-11.27v-5.34h28.86v5.34h-11.27v28.67h-6.32V544.07z"
                        class="st4"
                      ></path>
                      <path
                        _ngcontent-qpc-c207=""
                        d="M1330.82,540.18c2.19,0.97,3.86,2.37,5.03,4.18c1.17,1.81,1.75,3.97,1.75,6.46c0,2.46-0.58,4.61-1.75,6.44
                      c-1.17,1.83-2.84,3.23-5.03,4.2c-2.19,0.97-4.75,1.46-7.7,1.46h-7.68v9.82h-6.32v-34.01h13.99
                      C1326.07,538.73,1328.63,539.21,1330.82,540.18z M1329.09,555.83c1.43-1.17,2.14-2.83,2.14-5c0-2.17-0.71-3.84-2.14-5
                      s-3.51-1.75-6.27-1.75h-7.39v13.51h7.39C1325.58,557.58,1327.67,557,1329.09,555.83z"
                        class="st4"
                      ></path>
                      <path
                        _ngcontent-qpc-c207=""
                        d="M1348.77,538.73h6.32v28.67h17.78v5.34h-24.1V538.73z"
                        class="st4"
                      ></path>
                      <path
                        _ngcontent-qpc-c207=""
                        d="M1405.04,564.87h-17.01l-3.35,7.87h-6.51l15.31-34.01h6.22l15.35,34.01h-6.61L1405.04,564.87z
                      M1402.95,559.91l-6.41-14.87l-6.37,14.87H1402.95z"
                        class="st4"
                      ></path>
                      <path
                        _ngcontent-qpc-c207=""
                        d="M1430.19,570.97c-2.77-1.51-4.94-3.59-6.51-6.24c-1.57-2.66-2.36-5.65-2.36-8.99c0-3.34,0.79-6.33,2.38-8.99
                      c1.59-2.66,3.77-4.74,6.54-6.24s5.87-2.26,9.3-2.26c2.79,0,5.33,0.49,7.63,1.46c2.3,0.97,4.24,2.38,5.83,4.23l-4.08,3.84
                      c-2.46-2.66-5.49-3.98-9.09-3.98c-2.33,0-4.42,0.51-6.27,1.53s-3.29,2.44-4.32,4.25c-1.04,1.81-1.55,3.87-1.55,6.17
                      c0,2.3,0.52,4.36,1.55,6.17c1.04,1.81,2.48,3.23,4.32,4.25c1.85,1.02,3.94,1.53,6.27,1.53c3.6,0,6.62-1.34,9.09-4.03l4.08,3.89
                      c-1.59,1.85-3.54,3.26-5.86,4.23c-2.32,0.97-4.87,1.46-7.65,1.46C1436.06,573.22,1432.96,572.47,1430.19,570.97z"
                        class="st4"
                      ></path>
                      <path
                        _ngcontent-qpc-c207=""
                        d="M1489.45,567.44v5.3h-25.51v-34.01h24.83v5.3h-18.51v8.84h16.42v5.2h-16.42v9.38H1489.45z"
                        class="st4"
                      ></path>
                    </g>
                  </g>
                  <g _ngcontent-qpc-c207="">
                    <g _ngcontent-qpc-c207="">
                      <path
                        _ngcontent-qpc-c207=""
                        d="M869.25,125.69l-9.93,29.97h-5.91l-7.41-22.18l-7.54,22.18h-5.95l-9.93-29.97h5.78l7.45,22.78l7.75-22.78
                      h5.14l7.58,22.9l7.66-22.9H869.25z"
                        class="st3"
                      ></path>
                      <path
                        _ngcontent-qpc-c207=""
                        d="M922.51,125.69l-9.93,29.97h-5.91l-7.41-22.18l-7.54,22.18h-5.95l-9.93-29.97h5.78l7.45,22.78l7.75-22.78
                      h5.14l7.58,22.9l7.66-22.9H922.51z"
                        class="st3"
                      ></path>
                      <path
                        _ngcontent-qpc-c207=""
                        d="M975.77,125.69l-9.93,29.97h-5.91l-7.41-22.18l-7.54,22.18h-5.95l-9.93-29.97h5.78l7.45,22.78l7.75-22.78
                      h5.14l7.58,22.9l7.66-22.9H975.77z"
                        class="st3"
                      ></path>
                      <path
                        _ngcontent-qpc-c207=""
                        d="M982.36,154.95c-0.69-0.67-1.03-1.52-1.03-2.55c0-1.06,0.33-1.91,1.01-2.57c0.67-0.66,1.5-0.98,2.5-0.98
                      s1.83,0.33,2.5,0.98c0.67,0.66,1.01,1.51,1.01,2.57c0,1.03-0.34,1.88-1.03,2.55c-0.68,0.67-1.51,1.01-2.48,1.01
                      S983.05,155.62,982.36,154.95z"
                        class="st3"
                      ></path>
                      <path
                        _ngcontent-qpc-c207=""
                        d="M998.12,128.11c-0.66-0.61-0.98-1.38-0.98-2.29c0-0.91,0.33-1.68,0.98-2.29c0.66-0.61,1.47-0.92,2.44-0.92
                      c0.97,0,1.78,0.29,2.44,0.88c0.66,0.59,0.98,1.32,0.98,2.2c0,0.94-0.32,1.73-0.96,2.38c-0.64,0.64-1.46,0.96-2.46,0.96
                      C999.59,129.03,998.77,128.72,998.12,128.11z M997.86,132.8h5.35v22.86h-5.35V132.8z"
                        class="st3"
                      ></path>
                      <path
                        _ngcontent-qpc-c207=""
                        d="M1017.1,155.1c-2.16-0.66-3.86-1.53-5.12-2.61l1.93-4.32c1.23,0.97,2.73,1.76,4.52,2.38
                      c1.78,0.61,3.58,0.92,5.37,0.92c2.23,0,3.89-0.36,4.99-1.07c1.1-0.71,1.65-1.66,1.65-2.83c0-0.86-0.31-1.56-0.92-2.12
                      c-0.61-0.56-1.39-0.99-2.33-1.31c-0.94-0.31-2.23-0.67-3.85-1.07c-2.28-0.54-4.13-1.08-5.54-1.63c-1.41-0.54-2.63-1.39-3.64-2.55
                      c-1.01-1.16-1.52-2.72-1.52-4.69c0-1.66,0.45-3.16,1.35-4.52c0.9-1.36,2.25-2.43,4.07-3.23c1.81-0.8,4.03-1.2,6.66-1.2
                      c1.83,0,3.62,0.23,5.39,0.69c1.77,0.46,3.3,1.11,4.58,1.97l-1.75,4.32c-1.31-0.77-2.68-1.36-4.11-1.76
                      c-1.43-0.4-2.81-0.6-4.15-0.6c-2.2,0-3.83,0.37-4.9,1.11c-1.07,0.74-1.61,1.73-1.61,2.95c0,0.86,0.31,1.56,0.92,2.1
                      c0.61,0.54,1.39,0.97,2.33,1.28c0.94,0.31,2.23,0.67,3.85,1.07c2.23,0.51,4.05,1.05,5.48,1.61c1.43,0.56,2.65,1.41,3.66,2.55
                      c1.01,1.14,1.52,2.68,1.52,4.62c0,1.66-0.45,3.15-1.35,4.5c-0.9,1.34-2.26,2.41-4.09,3.21c-1.83,0.8-4.05,1.2-6.68,1.2
                      C1021.49,156.09,1019.26,155.76,1017.1,155.1z"
                        class="st3"
                      ></path>
                      <path
                        _ngcontent-qpc-c207=""
                        d="M1064.84,126.98c1.93,0.86,3.4,2.08,4.43,3.68c1.03,1.6,1.54,3.5,1.54,5.69c0,2.17-0.51,4.06-1.54,5.67
                      c-1.03,1.61-2.5,2.85-4.43,3.7s-4.19,1.28-6.79,1.28h-6.76v8.65h-5.57v-29.97h12.33
                      C1060.65,125.69,1062.91,126.12,1064.84,126.98z M1063.32,140.76c1.26-1.03,1.88-2.5,1.88-4.41c0-1.91-0.63-3.38-1.88-4.41
                      c-1.26-1.03-3.1-1.54-5.52-1.54h-6.51v11.9h6.51C1060.22,142.3,1062.06,141.79,1063.32,140.76z"
                        class="st3"
                      ></path>
                      <path
                        _ngcontent-qpc-c207=""
                        d="M1103.13,150.99v4.67h-22.48v-29.97h21.88v4.67h-16.31v7.79h14.47v4.58h-14.47v8.26H1103.13z"
                        class="st3"
                      ></path>
                      <path
                        _ngcontent-qpc-c207=""
                        d="M1136.1,150.99v4.67h-22.48v-29.97h21.88v4.67h-16.31v7.79h14.47v4.58h-14.47v8.26H1136.1z"
                        class="st3"
                      ></path>
                      <path
                        _ngcontent-qpc-c207=""
                        d="M1146.59,125.69h13.1c3.2,0,6.04,0.62,8.52,1.86c2.48,1.24,4.41,3,5.78,5.27s2.05,4.89,2.05,7.86
                      c0,2.97-0.68,5.59-2.05,7.86s-3.3,4.02-5.78,5.27c-2.48,1.24-5.32,1.86-8.52,1.86h-13.1V125.69z M1159.43,150.95
                      c2.2,0,4.13-0.42,5.8-1.26c1.67-0.84,2.95-2.04,3.85-3.6c0.9-1.56,1.35-3.36,1.35-5.42s-0.45-3.86-1.35-5.42
                      c-0.9-1.56-2.18-2.75-3.85-3.6c-1.67-0.84-3.6-1.26-5.8-1.26h-7.28v20.55H1159.43z"
                        class="st3"
                      ></path>
                      <path
                        _ngcontent-qpc-c207=""
                        d="M1191.88,130.4h-9.93v-4.71h25.43v4.71h-9.93v25.26h-5.57V130.4z"
                        class="st3"
                      ></path>
                      <path
                        _ngcontent-qpc-c207=""
                        d="M1221.16,154.1c-2.46-1.33-4.38-3.17-5.78-5.52c-1.4-2.35-2.1-4.99-2.1-7.9s0.7-5.54,2.1-7.9
                      c1.4-2.35,3.32-4.2,5.78-5.52c2.46-1.33,5.21-1.99,8.26-1.99s5.81,0.66,8.26,1.99c2.46,1.33,4.38,3.16,5.78,5.5
                      c1.4,2.34,2.1,4.98,2.1,7.92c0,2.94-0.7,5.58-2.1,7.92c-1.4,2.34-3.33,4.17-5.78,5.5c-2.46,1.33-5.21,1.99-8.26,1.99
                      S1223.62,155.42,1221.16,154.1z M1234.82,149.86c1.6-0.9,2.85-2.15,3.77-3.77c0.91-1.61,1.37-3.42,1.37-5.42
                      c0-2-0.46-3.8-1.37-5.42c-0.91-1.61-2.17-2.87-3.77-3.77c-1.6-0.9-3.4-1.35-5.39-1.35s-3.8,0.45-5.39,1.35
                      c-1.6,0.9-2.85,2.16-3.77,3.77c-0.91,1.61-1.37,3.42-1.37,5.42c0,2,0.46,3.8,1.37,5.42c0.91,1.61,2.17,2.87,3.77,3.77
                      c1.6,0.9,3.4,1.35,5.39,1.35S1233.22,150.76,1234.82,149.86z"
                        class="st3"
                      ></path>
                      <path
                        _ngcontent-qpc-c207=""
                        d="M1255.76,125.69h5.57v25.26h15.67v4.71h-21.23V125.69z"
                        class="st3"
                      ></path>
                      <path
                        _ngcontent-qpc-c207=""
                        d="M1308.16,150.99v4.67h-22.48v-29.97h21.88v4.67h-16.31v7.79h14.47v4.58h-14.47v8.26H1308.16z"
                        class="st3"
                      ></path>
                      <path
                        _ngcontent-qpc-c207=""
                        d="M1338.08,148.72h-14.98l-2.95,6.94h-5.74l13.49-29.97h5.48l13.53,29.97h-5.82L1338.08,148.72z
                      M1336.24,144.36l-5.65-13.1l-5.61,13.1H1336.24z"
                        class="st3"
                      ></path>
                      <path
                        _ngcontent-qpc-c207=""
                        d="M1354.99,125.69h13.1c3.2,0,6.04,0.62,8.52,1.86c2.48,1.24,4.41,3,5.78,5.27s2.05,4.89,2.05,7.86
                      c0,2.97-0.68,5.59-2.05,7.86s-3.3,4.02-5.78,5.27c-2.48,1.24-5.32,1.86-8.52,1.86h-13.1V125.69z M1367.84,150.95
                      c2.2,0,4.13-0.42,5.8-1.26c1.67-0.84,2.95-2.04,3.85-3.6c0.9-1.56,1.35-3.36,1.35-5.42s-0.45-3.86-1.35-5.42
                      c-0.9-1.56-2.18-2.75-3.85-3.6c-1.67-0.84-3.6-1.26-5.8-1.26h-7.28v20.55H1367.84z"
                        class="st3"
                      ></path>
                      <path
                        _ngcontent-qpc-c207=""
                        d="M1392.5,154.95c-0.69-0.67-1.03-1.52-1.03-2.55c0-1.06,0.33-1.91,1.01-2.57c0.67-0.66,1.5-0.98,2.5-0.98
                      s1.83,0.33,2.5,0.98c0.67,0.66,1.01,1.51,1.01,2.57c0,1.03-0.34,1.88-1.03,2.55c-0.68,0.67-1.51,1.01-2.48,1.01
                      S1393.18,155.62,1392.5,154.95z"
                        class="st3"
                      ></path>
                      <path
                        _ngcontent-qpc-c207=""
                        d="M1413.33,154.1c-2.44-1.33-4.35-3.16-5.74-5.5c-1.38-2.34-2.08-4.98-2.08-7.92c0-2.94,0.7-5.58,2.1-7.92
                      c1.4-2.34,3.32-4.17,5.76-5.5c2.44-1.33,5.17-1.99,8.2-1.99c2.45,0,4.69,0.43,6.72,1.28s3.74,2.1,5.14,3.72l-3.6,3.38
                      c-2.17-2.34-4.84-3.51-8.01-3.51c-2.06,0-3.9,0.45-5.52,1.35c-1.63,0.9-2.9,2.15-3.81,3.75c-0.91,1.6-1.37,3.41-1.37,5.44
                      c0,2.03,0.46,3.84,1.37,5.44c0.91,1.6,2.18,2.85,3.81,3.75c1.63,0.9,3.47,1.35,5.52,1.35c3.17,0,5.84-1.18,8.01-3.55l3.6,3.43
                      c-1.4,1.63-3.12,2.87-5.16,3.72c-2.04,0.86-4.29,1.28-6.74,1.28C1418.5,156.09,1415.76,155.42,1413.33,154.1z"
                        class="st3"
                      ></path>
                      <path
                        _ngcontent-qpc-c207=""
                        d="M1448.15,154.1c-2.46-1.33-4.38-3.17-5.78-5.52c-1.4-2.35-2.1-4.99-2.1-7.9s0.7-5.54,2.1-7.9
                      c1.4-2.35,3.32-4.2,5.78-5.52c2.46-1.33,5.21-1.99,8.26-1.99s5.81,0.66,8.26,1.99c2.46,1.33,4.38,3.16,5.78,5.5
                      c1.4,2.34,2.1,4.98,2.1,7.92c0,2.94-0.7,5.58-2.1,7.92c-1.4,2.34-3.33,4.17-5.78,5.5c-2.46,1.33-5.21,1.99-8.26,1.99
                      S1450.61,155.42,1448.15,154.1z M1461.81,149.86c1.6-0.9,2.85-2.15,3.77-3.77c0.91-1.61,1.37-3.42,1.37-5.42
                      c0-2-0.46-3.8-1.37-5.42c-0.91-1.61-2.17-2.87-3.77-3.77c-1.6-0.9-3.4-1.35-5.39-1.35s-3.8,0.45-5.39,1.35
                      c-1.6,0.9-2.85,2.16-3.77,3.77c-0.91,1.61-1.37,3.42-1.37,5.42c0,2,0.46,3.8,1.37,5.42c0.91,1.61,2.17,2.87,3.77,3.77
                      c1.6,0.9,3.4,1.35,5.39,1.35S1460.21,150.76,1461.81,149.86z"
                        class="st3"
                      ></path>
                      <path
                        _ngcontent-qpc-c207=""
                        d="M1510.27,155.66l-0.04-19.86l-9.85,16.44h-2.48l-9.85-16.18v19.61h-5.31v-29.97h4.58l11.9,19.86l11.69-19.86
                      h4.58l0.04,29.97H1510.27z"
                        class="st3"
                      ></path>
                    </g>
                    <g _ngcontent-qpc-c207="">
                      <path
                        _ngcontent-qpc-c207=""
                        d="M869.25,125.69l-9.93,29.97h-5.91l-7.41-22.18l-7.54,22.18h-5.95l-9.93-29.97h5.78l7.45,22.78l7.75-22.78
                      h5.14l7.58,22.9l7.66-22.9H869.25z"
                        class="st4"
                      ></path>
                      <path
                        _ngcontent-qpc-c207=""
                        d="M922.51,125.69l-9.93,29.97h-5.91l-7.41-22.18l-7.54,22.18h-5.95l-9.93-29.97h5.78l7.45,22.78l7.75-22.78
                      h5.14l7.58,22.9l7.66-22.9H922.51z"
                        class="st4"
                      ></path>
                      <path
                        _ngcontent-qpc-c207=""
                        d="M975.77,125.69l-9.93,29.97h-5.91l-7.41-22.18l-7.54,22.18h-5.95l-9.93-29.97h5.78l7.45,22.78l7.75-22.78
                      h5.14l7.58,22.9l7.66-22.9H975.77z"
                        class="st4"
                      ></path>
                      <path
                        _ngcontent-qpc-c207=""
                        d="M982.36,154.95c-0.69-0.67-1.03-1.52-1.03-2.55c0-1.06,0.33-1.91,1.01-2.57c0.67-0.66,1.5-0.98,2.5-0.98
                      s1.83,0.33,2.5,0.98c0.67,0.66,1.01,1.51,1.01,2.57c0,1.03-0.34,1.88-1.03,2.55c-0.68,0.67-1.51,1.01-2.48,1.01
                      S983.05,155.62,982.36,154.95z"
                        class="st4"
                      ></path>
                      <path
                        _ngcontent-qpc-c207=""
                        d="M998.12,128.11c-0.66-0.61-0.98-1.38-0.98-2.29c0-0.91,0.33-1.68,0.98-2.29c0.66-0.61,1.47-0.92,2.44-0.92
                      c0.97,0,1.78,0.29,2.44,0.88c0.66,0.59,0.98,1.32,0.98,2.2c0,0.94-0.32,1.73-0.96,2.38c-0.64,0.64-1.46,0.96-2.46,0.96
                      C999.59,129.03,998.77,128.72,998.12,128.11z M997.86,132.8h5.35v22.86h-5.35V132.8z"
                        class="st4"
                      ></path>
                      <path
                        _ngcontent-qpc-c207=""
                        d="M1017.1,155.1c-2.16-0.66-3.86-1.53-5.12-2.61l1.93-4.32c1.23,0.97,2.73,1.76,4.52,2.38
                      c1.78,0.61,3.58,0.92,5.37,0.92c2.23,0,3.89-0.36,4.99-1.07c1.1-0.71,1.65-1.66,1.65-2.83c0-0.86-0.31-1.56-0.92-2.12
                      c-0.61-0.56-1.39-0.99-2.33-1.31c-0.94-0.31-2.23-0.67-3.85-1.07c-2.28-0.54-4.13-1.08-5.54-1.63c-1.41-0.54-2.63-1.39-3.64-2.55
                      c-1.01-1.16-1.52-2.72-1.52-4.69c0-1.66,0.45-3.16,1.35-4.52c0.9-1.36,2.25-2.43,4.07-3.23c1.81-0.8,4.03-1.2,6.66-1.2
                      c1.83,0,3.62,0.23,5.39,0.69c1.77,0.46,3.3,1.11,4.58,1.97l-1.75,4.32c-1.31-0.77-2.68-1.36-4.11-1.76
                      c-1.43-0.4-2.81-0.6-4.15-0.6c-2.2,0-3.83,0.37-4.9,1.11c-1.07,0.74-1.61,1.73-1.61,2.95c0,0.86,0.31,1.56,0.92,2.1
                      c0.61,0.54,1.39,0.97,2.33,1.28c0.94,0.31,2.23,0.67,3.85,1.07c2.23,0.51,4.05,1.05,5.48,1.61c1.43,0.56,2.65,1.41,3.66,2.55
                      c1.01,1.14,1.52,2.68,1.52,4.62c0,1.66-0.45,3.15-1.35,4.5c-0.9,1.34-2.26,2.41-4.09,3.21c-1.83,0.8-4.05,1.2-6.68,1.2
                      C1021.49,156.09,1019.26,155.76,1017.1,155.1z"
                        class="st4"
                      ></path>
                      <path
                        _ngcontent-qpc-c207=""
                        d="M1064.84,126.98c1.93,0.86,3.4,2.08,4.43,3.68c1.03,1.6,1.54,3.5,1.54,5.69c0,2.17-0.51,4.06-1.54,5.67
                      c-1.03,1.61-2.5,2.85-4.43,3.7s-4.19,1.28-6.79,1.28h-6.76v8.65h-5.57v-29.97h12.33
                      C1060.65,125.69,1062.91,126.12,1064.84,126.98z M1063.32,140.76c1.26-1.03,1.88-2.5,1.88-4.41c0-1.91-0.63-3.38-1.88-4.41
                      c-1.26-1.03-3.1-1.54-5.52-1.54h-6.51v11.9h6.51C1060.22,142.3,1062.06,141.79,1063.32,140.76z"
                        class="st4"
                      ></path>
                      <path
                        _ngcontent-qpc-c207=""
                        d="M1103.13,150.99v4.67h-22.48v-29.97h21.88v4.67h-16.31v7.79h14.47v4.58h-14.47v8.26H1103.13z"
                        class="st4"
                      ></path>
                      <path
                        _ngcontent-qpc-c207=""
                        d="M1136.1,150.99v4.67h-22.48v-29.97h21.88v4.67h-16.31v7.79h14.47v4.58h-14.47v8.26H1136.1z"
                        class="st4"
                      ></path>
                      <path
                        _ngcontent-qpc-c207=""
                        d="M1146.59,125.69h13.1c3.2,0,6.04,0.62,8.52,1.86c2.48,1.24,4.41,3,5.78,5.27s2.05,4.89,2.05,7.86
                      c0,2.97-0.68,5.59-2.05,7.86s-3.3,4.02-5.78,5.27c-2.48,1.24-5.32,1.86-8.52,1.86h-13.1V125.69z M1159.43,150.95
                      c2.2,0,4.13-0.42,5.8-1.26c1.67-0.84,2.95-2.04,3.85-3.6c0.9-1.56,1.35-3.36,1.35-5.42s-0.45-3.86-1.35-5.42
                      c-0.9-1.56-2.18-2.75-3.85-3.6c-1.67-0.84-3.6-1.26-5.8-1.26h-7.28v20.55H1159.43z"
                        class="st4"
                      ></path>
                      <path
                        _ngcontent-qpc-c207=""
                        d="M1191.88,130.4h-9.93v-4.71h25.43v4.71h-9.93v25.26h-5.57V130.4z"
                        class="st4"
                      ></path>
                      <path
                        _ngcontent-qpc-c207=""
                        d="M1221.16,154.1c-2.46-1.33-4.38-3.17-5.78-5.52c-1.4-2.35-2.1-4.99-2.1-7.9s0.7-5.54,2.1-7.9
                      c1.4-2.35,3.32-4.2,5.78-5.52c2.46-1.33,5.21-1.99,8.26-1.99s5.81,0.66,8.26,1.99c2.46,1.33,4.38,3.16,5.78,5.5
                      c1.4,2.34,2.1,4.98,2.1,7.92c0,2.94-0.7,5.58-2.1,7.92c-1.4,2.34-3.33,4.17-5.78,5.5c-2.46,1.33-5.21,1.99-8.26,1.99
                      S1223.62,155.42,1221.16,154.1z M1234.82,149.86c1.6-0.9,2.85-2.15,3.77-3.77c0.91-1.61,1.37-3.42,1.37-5.42
                      c0-2-0.46-3.8-1.37-5.42c-0.91-1.61-2.17-2.87-3.77-3.77c-1.6-0.9-3.4-1.35-5.39-1.35s-3.8,0.45-5.39,1.35
                      c-1.6,0.9-2.85,2.16-3.77,3.77c-0.91,1.61-1.37,3.42-1.37,5.42c0,2,0.46,3.8,1.37,5.42c0.91,1.61,2.17,2.87,3.77,3.77
                      c1.6,0.9,3.4,1.35,5.39,1.35S1233.22,150.76,1234.82,149.86z"
                        class="st4"
                      ></path>
                      <path
                        _ngcontent-qpc-c207=""
                        d="M1255.76,125.69h5.57v25.26h15.67v4.71h-21.23V125.69z"
                        class="st4"
                      ></path>
                      <path
                        _ngcontent-qpc-c207=""
                        d="M1308.16,150.99v4.67h-22.48v-29.97h21.88v4.67h-16.31v7.79h14.47v4.58h-14.47v8.26H1308.16z"
                        class="st4"
                      ></path>
                      <path
                        _ngcontent-qpc-c207=""
                        d="M1338.08,148.72h-14.98l-2.95,6.94h-5.74l13.49-29.97h5.48l13.53,29.97h-5.82L1338.08,148.72z
                      M1336.24,144.36l-5.65-13.1l-5.61,13.1H1336.24z"
                        class="st4"
                      ></path>
                      <path
                        _ngcontent-qpc-c207=""
                        d="M1354.99,125.69h13.1c3.2,0,6.04,0.62,8.52,1.86c2.48,1.24,4.41,3,5.78,5.27s2.05,4.89,2.05,7.86
                      c0,2.97-0.68,5.59-2.05,7.86s-3.3,4.02-5.78,5.27c-2.48,1.24-5.32,1.86-8.52,1.86h-13.1V125.69z M1367.84,150.95
                      c2.2,0,4.13-0.42,5.8-1.26c1.67-0.84,2.95-2.04,3.85-3.6c0.9-1.56,1.35-3.36,1.35-5.42s-0.45-3.86-1.35-5.42
                      c-0.9-1.56-2.18-2.75-3.85-3.6c-1.67-0.84-3.6-1.26-5.8-1.26h-7.28v20.55H1367.84z"
                        class="st4"
                      ></path>
                      <path
                        _ngcontent-qpc-c207=""
                        d="M1392.5,154.95c-0.69-0.67-1.03-1.52-1.03-2.55c0-1.06,0.33-1.91,1.01-2.57c0.67-0.66,1.5-0.98,2.5-0.98
                      s1.83,0.33,2.5,0.98c0.67,0.66,1.01,1.51,1.01,2.57c0,1.03-0.34,1.88-1.03,2.55c-0.68,0.67-1.51,1.01-2.48,1.01
                      S1393.18,155.62,1392.5,154.95z"
                        class="st4"
                      ></path>
                      <path
                        _ngcontent-qpc-c207=""
                        d="M1413.33,154.1c-2.44-1.33-4.35-3.16-5.74-5.5c-1.38-2.34-2.08-4.98-2.08-7.92c0-2.94,0.7-5.58,2.1-7.92
                      c1.4-2.34,3.32-4.17,5.76-5.5c2.44-1.33,5.17-1.99,8.2-1.99c2.45,0,4.69,0.43,6.72,1.28s3.74,2.1,5.14,3.72l-3.6,3.38
                      c-2.17-2.34-4.84-3.51-8.01-3.51c-2.06,0-3.9,0.45-5.52,1.35c-1.63,0.9-2.9,2.15-3.81,3.75c-0.91,1.6-1.37,3.41-1.37,5.44
                      c0,2.03,0.46,3.84,1.37,5.44c0.91,1.6,2.18,2.85,3.81,3.75c1.63,0.9,3.47,1.35,5.52,1.35c3.17,0,5.84-1.18,8.01-3.55l3.6,3.43
                      c-1.4,1.63-3.12,2.87-5.16,3.72c-2.04,0.86-4.29,1.28-6.74,1.28C1418.5,156.09,1415.76,155.42,1413.33,154.1z"
                        class="st4"
                      ></path>
                      <path
                        _ngcontent-qpc-c207=""
                        d="M1448.15,154.1c-2.46-1.33-4.38-3.17-5.78-5.52c-1.4-2.35-2.1-4.99-2.1-7.9s0.7-5.54,2.1-7.9
                      c1.4-2.35,3.32-4.2,5.78-5.52c2.46-1.33,5.21-1.99,8.26-1.99s5.81,0.66,8.26,1.99c2.46,1.33,4.38,3.16,5.78,5.5
                      c1.4,2.34,2.1,4.98,2.1,7.92c0,2.94-0.7,5.58-2.1,7.92c-1.4,2.34-3.33,4.17-5.78,5.5c-2.46,1.33-5.21,1.99-8.26,1.99
                      S1450.61,155.42,1448.15,154.1z M1461.81,149.86c1.6-0.9,2.85-2.15,3.77-3.77c0.91-1.61,1.37-3.42,1.37-5.42
                      c0-2-0.46-3.8-1.37-5.42c-0.91-1.61-2.17-2.87-3.77-3.77c-1.6-0.9-3.4-1.35-5.39-1.35s-3.8,0.45-5.39,1.35
                      c-1.6,0.9-2.85,2.16-3.77,3.77c-0.91,1.61-1.37,3.42-1.37,5.42c0,2,0.46,3.8,1.37,5.42c0.91,1.61,2.17,2.87,3.77,3.77
                      c1.6,0.9,3.4,1.35,5.39,1.35S1460.21,150.76,1461.81,149.86z"
                        class="st4"
                      ></path>
                      <path
                        _ngcontent-qpc-c207=""
                        d="M1510.27,155.66l-0.04-19.86l-9.85,16.44h-2.48l-9.85-16.18v19.61h-5.31v-29.97h4.58l11.9,19.86l11.69-19.86
                      h4.58l0.04,29.97H1510.27z"
                        class="st4"
                      ></path>
                    </g>
                  </g>
                </g>
              </svg>